<svg xmlns="http://www.w3.org/2000/svg" viewBox="0 0 512 512">
  <rect width="512" height="512" fill="#0d0508"/>
  <!-- Glowing effect -->
  <path d="M256 448l-30-27C118 322 48 258 48 179C48 114 99 64 164 64c37 0 71 17 92 45 21-28 55-45 92-45 65 0 116 50 116 115 0 79-70 143-178 242l-30 27z" fill="rgba(244,63,94,0.3)" transform="scale(1.05) translate(-12, -10)" filter="blur(15px)"/>
  <path d="M256 448l-30-27C118 322 48 258 48 179C48 114 99 64 164 64c37 0 71 17 92 45 21-28 55-45 92-45 65 0 116 50 116 115 0 79-70 143-178 242l-30 27z" fill="#f43f5e"/>
  <path d="M256 448l-30-27C118 322 48 258 48 179C48 114 99 64 164 64c37 0 71 17 92 45 21-28 55-45 92-45 65 0 116 50 116 115 0 79-70 143-178 242l-30 27z" fill="none" stroke="#d4af6e" stroke-width="14"/>
</svg>
